<?xml version="1.0" encoding="utf-8"?>
<!-- Generator: Adobe Illustrator 25.3.1, SVG Export Plug-In . SVG Version: 6.00 Build 0)  -->
<svg version="1.1" id="레이어_1" xmlns="http://www.w3.org/2000/svg" xmlns:xlink="http://www.w3.org/1999/xlink" x="0px"
	 y="0px" viewBox="0 0 12 12" style="enable-background:new 0 0 12 12;" xml:space="preserve">
<style type="text/css">
	.st0{fill:none;stroke:#000000;stroke-linecap:round;stroke-linejoin:round;}
</style>
<g>
	<g>
		<g>
			<path class="st0" d="M5.5,2H2C1.7,2,1.5,2.1,1.3,2.3S1,2.7,1,3v7c0,0.3,0.1,0.5,0.3,0.7S1.7,11,2,11h7c0.3,0,0.5-0.1,0.7-0.3
				S10,10.3,10,10V6.5"/>
			<path class="st0" d="M9.2,1.2C9.4,1.1,9.7,0.9,10,0.9s0.6,0.1,0.8,0.3s0.3,0.5,0.3,0.8S11,2.6,10.8,2.8L6,7.5L4,8l0.5-2L9.2,1.2z
				"/>
		</g>
	</g>
</g>
</svg>
