<?xml version="1.0" encoding="utf-8"?>
<!-- Generator: Adobe Illustrator 25.3.1, SVG Export Plug-In . SVG Version: 6.00 Build 0)  -->
<svg version="1.1" id="레이어_1" xmlns="http://www.w3.org/2000/svg" xmlns:xlink="http://www.w3.org/1999/xlink" x="0px"
	 y="0px" viewBox="0 0 18 18" style="enable-background:new 0 0 18 18;" xml:space="preserve">
<style type="text/css">
	.st0{fill-rule:evenodd;clip-rule:evenodd;}
</style>
<g>
	<g>
		<path class="st0" d="M9,10.1l4.5,4.5c0.2,0.1,0.4,0.2,0.6,0.2c0.2,0,0.4-0.1,0.6-0.2c0.1-0.1,0.2-0.3,0.2-0.6
			c0-0.2-0.1-0.4-0.2-0.6L10.1,9l4.5-4.5c0.1-0.2,0.2-0.4,0.2-0.6c0-0.2-0.1-0.4-0.2-0.6c-0.1-0.1-0.3-0.2-0.6-0.2
			c-0.2,0-0.4,0.1-0.6,0.2L9,7.9L4.5,3.4C4.3,3.2,4.1,3.2,3.9,3.2c-0.2,0-0.4,0.1-0.6,0.2C3.2,3.5,3.2,3.7,3.2,3.9
			c0,0.2,0.1,0.4,0.2,0.6L7.9,9l-4.5,4.5c-0.1,0.1-0.1,0.2-0.2,0.3c0,0.1-0.1,0.2-0.1,0.3s0,0.2,0.1,0.3c0,0.1,0.1,0.2,0.2,0.3
			c0.1,0.1,0.2,0.1,0.3,0.2C3.8,14.9,3.9,15,4,15s0.2,0,0.3-0.1c0.1,0,0.2-0.1,0.3-0.2L9,10.1z"/>
	</g>
</g>
</svg>
