<svg width="18" height="18" viewBox="0 0 18 18" fill="none" xmlns="http://www.w3.org/2000/svg">
<g clip-path="url(#clip0_244_3915)">
<path fill-rule="evenodd" clip-rule="evenodd" d="M4.5 2.25C3.90326 2.25 3.33097 2.48705 2.90901 2.90901C2.48705 3.33097 2.25 3.90326 2.25 4.5V13.5C2.25 14.0967 2.48705 14.669 2.90901 15.091C3.33097 15.5129 3.90326 15.75 4.5 15.75H13.5C14.0967 15.75 14.669 15.5129 15.091 15.091C15.5129 14.669 15.75 14.0967 15.75 13.5V9.75C15.75 9.55109 15.671 9.36032 15.5303 9.21967C15.3897 9.07902 15.1989 9 15 9C14.8011 9 14.6103 9.07902 14.4697 9.21967C14.329 9.36032 14.25 9.55109 14.25 9.75V13.5C14.25 13.6989 14.171 13.8897 14.0303 14.0303C13.8897 14.171 13.6989 14.25 13.5 14.25H4.5C4.30109 14.25 4.11032 14.171 3.96967 14.0303C3.82902 13.8897 3.75 13.6989 3.75 13.5V4.5C3.75 4.30109 3.82902 4.11032 3.96967 3.96967C4.11032 3.82902 4.30109 3.75 4.5 3.75H10.5C10.6989 3.75 10.8897 3.67098 11.0303 3.53033C11.171 3.38968 11.25 3.19891 11.25 3C11.25 2.80109 11.171 2.61032 11.0303 2.46967C10.8897 2.32902 10.6989 2.25 10.5 2.25H4.5ZM16.0185 4.53375C16.1913 4.43543 16.318 4.27253 16.3707 4.08084C16.4235 3.88916 16.3979 3.68437 16.2997 3.5115C16.2 3.34 16.037 3.21446 15.8457 3.16187C15.6544 3.10928 15.4501 3.13383 15.2767 3.23025C15.012 3.38025 14.7563 3.54825 14.5043 3.71775C13.8652 4.14758 13.2486 4.60994 12.657 5.103C11.4255 6.1275 9.9465 7.5705 8.72775 9.3915C8.34885 8.89256 7.90892 8.44306 7.41825 8.0535C7.098 7.80375 6.74175 7.5585 6.357 7.419C6.17022 7.35047 5.96312 7.35895 5.78259 7.44257C5.60207 7.52619 5.46215 7.6781 5.39363 7.86487C5.3251 8.05165 5.33358 8.258 5.4172 8.43853C5.50081 8.61906 5.65272 8.75898 5.8395 8.8275C5.85825 8.835 6.117 8.94 6.4965 9.23625C6.93 9.57375 7.5285 10.1655 8.106 11.154C8.17243 11.2678 8.26768 11.3621 8.38215 11.4274C8.49662 11.4927 8.62627 11.5266 8.75804 11.5259C8.88982 11.5251 9.01907 11.4897 9.13277 11.4231C9.24648 11.3564 9.34063 11.2611 9.40575 11.1465C10.5938 9.05325 12.246 7.3965 13.6163 6.2565C14.2988 5.68875 14.9062 5.2545 15.3397 4.9635C15.561 4.81425 15.786 4.668 16.0178 4.5345L16.0185 4.53375Z" fill="black"/>
</g>
<defs>
<clipPath id="clip0_244_3915">
<rect width="18" height="18" fill="white"/>
</clipPath>
</defs>
</svg>
