<?xml version="1.0" encoding="utf-8"?>
<!-- Generator: Adobe Illustrator 25.3.1, SVG Export Plug-In . SVG Version: 6.00 Build 0)  -->
<svg version="1.1" id="레이어_1" xmlns="http://www.w3.org/2000/svg" xmlns:xlink="http://www.w3.org/1999/xlink" x="0px"
	 y="0px" viewBox="0 0 18 18" style="enable-background:new 0 0 18 18;" xml:space="preserve">
<path d="M16,1.4H5.8c-0.2,0-0.3,0.1-0.4,0.2C5.3,1.7,5.2,1.9,5.2,2v3.2H2c-0.2,0-0.3,0.1-0.4,0.2C1.5,5.5,1.4,5.7,1.4,5.8V16
	c0,0.2,0.1,0.3,0.2,0.4c0.1,0.1,0.3,0.2,0.4,0.2h10.1c0.2,0,0.3-0.1,0.4-0.2c0.1-0.1,0.2-0.3,0.2-0.4v-3.2H16c0.2,0,0.3-0.1,0.4-0.2
	c0.1-0.1,0.2-0.3,0.2-0.4V2c0-0.2-0.1-0.3-0.2-0.4C16.3,1.5,16.1,1.4,16,1.4z M11.5,15.3H2.7V6.5h8.9V15.3z M15.3,11.5h-2.5V5.8
	c0-0.2-0.1-0.3-0.2-0.4c-0.1-0.1-0.3-0.2-0.4-0.2H6.5V2.7h8.9V11.5z"/>
</svg>
