<?xml version="1.0" encoding="utf-8"?>
<!-- Generator: Adobe Illustrator 25.3.1, SVG Export Plug-In . SVG Version: 6.00 Build 0)  -->
<svg version="1.1" id="레이어_1" xmlns="http://www.w3.org/2000/svg" xmlns:xlink="http://www.w3.org/1999/xlink" x="0px"
	 y="0px" viewBox="0 0 24 24" style="enable-background:new 0 0 24 24;" xml:space="preserve">
<path d="M10.9,17.7h2.3v-6.9h-2.3V17.7z M12,8.6c0.3,0,0.6-0.1,0.8-0.3C13,8,13.1,7.7,13.1,7.4c0-0.3-0.1-0.6-0.3-0.8
	c-0.2-0.2-0.5-0.3-0.8-0.3c-0.3,0-0.6,0.1-0.8,0.3s-0.3,0.5-0.3,0.8c0,0.3,0.1,0.6,0.3,0.8C11.4,8.5,11.7,8.6,12,8.6z M12,23.4
	c-1.6,0-3.1-0.3-4.5-0.9c-1.4-0.6-2.6-1.4-3.6-2.4c-1-1-1.8-2.2-2.4-3.6S0.6,13.6,0.6,12s0.3-3.1,0.9-4.5s1.4-2.6,2.4-3.6
	s2.2-1.8,3.6-2.4s2.9-0.9,4.5-0.9s3.1,0.3,4.5,0.9s2.6,1.4,3.6,2.4c1,1,1.8,2.2,2.4,3.6s0.9,2.9,0.9,4.5c0,1.6-0.3,3.1-0.9,4.5
	c-0.6,1.4-1.4,2.6-2.4,3.6c-1,1-2.2,1.8-3.6,2.4C15.1,23.2,13.6,23.5,12,23.4z M12,21.2c2.6,0,4.7-0.9,6.5-2.7
	c1.8-1.8,2.7-3.9,2.7-6.5c0-2.6-0.9-4.7-2.7-6.5c-1.8-1.8-3.9-2.7-6.5-2.7c-2.6,0-4.7,0.9-6.5,2.7S2.8,9.4,2.8,12
	c0,2.6,0.9,4.7,2.7,6.5C7.3,20.3,9.4,21.2,12,21.2z"/>
</svg>
