<svg width="39" height="40" viewBox="0 0 39 40" fill="none" xmlns="http://www.w3.org/2000/svg">
<path d="M8.41875 25.4984C7.68873 23.885 7.31191 22.1402 7.3125 20.376C7.3125 13.5835 12.7688 8.08171 19.5 8.08171C26.2312 8.08171 31.6875 13.5854 31.6875 20.376C31.6881 22.1402 31.3113 23.885 30.5812 25.4984M19.5 1.66504V3.49837M38.25 19.9984H36.375M2.625 19.9984H0.75M32.7562 7.03487L31.4306 8.33104M7.56938 8.33287L6.24375 7.03671M24.2194 33.3945C26.1131 32.795 26.8744 31.0992 27.0881 29.3942C27.1519 28.8845 26.7225 28.461 26.1975 28.461H12.8944C12.7662 28.459 12.639 28.4837 12.5213 28.5333C12.4035 28.583 12.2979 28.6565 12.2114 28.7491C12.1249 28.8416 12.0595 28.9511 12.0195 29.0702C11.9795 29.1893 11.9658 29.3154 11.9794 29.44C12.1894 31.1414 12.7181 32.3844 14.7244 33.3927M24.2194 33.3945L14.7244 33.3927M24.2194 33.3945C23.9925 36.9604 22.9387 38.372 19.5131 38.3317C15.8494 38.3977 15.0056 36.6505 14.7244 33.3927" stroke="white" stroke-width="1.5" stroke-linecap="round" stroke-linejoin="round"/>
</svg>
