<?xml version="1.0" encoding="utf-8"?>
<!-- Generator: Adobe Illustrator 25.3.1, SVG Export Plug-In . SVG Version: 6.00 Build 0)  -->
<svg version="1.1" id="레이어_1" xmlns="http://www.w3.org/2000/svg" xmlns:xlink="http://www.w3.org/1999/xlink" x="0px"
	 y="0px" viewBox="0 0 12 12" style="enable-background:new 0 0 12 12;" xml:space="preserve">
<style type="text/css">
	.st0{fill:none;stroke:#000000;stroke-linecap:round;stroke-linejoin:round;}
</style>
<path class="st0" d="M1.5,3h1h8"/>
<path class="st0" d="M9.5,3v7c0,0.3-0.1,0.5-0.3,0.7S8.8,11,8.5,11h-5c-0.3,0-0.5-0.1-0.7-0.3S2.5,10.3,2.5,10V3 M4,3V2
	c0-0.3,0.1-0.5,0.3-0.7C4.5,1.1,4.7,1,5,1h2c0.3,0,0.5,0.1,0.7,0.3C7.9,1.5,8,1.7,8,2v1"/>
<path class="st0" d="M5,5.5v3"/>
<path class="st0" d="M7,5.5v3"/>
</svg>
