<?xml version="1.0" encoding="utf-8"?>
<!-- Generator: Adobe Illustrator 25.3.1, SVG Export Plug-In . SVG Version: 6.00 Build 0)  -->
<svg version="1.1" id="레이어_1" xmlns="http://www.w3.org/2000/svg" xmlns:xlink="http://www.w3.org/1999/xlink" x="0px"
	 y="0px" viewBox="0 0 24 24" style="enable-background:new 0 0 24 24;" xml:space="preserve">
<path d="M17.2,2.8c1,0,2,0.4,2.7,1.1s1.2,1.6,1.2,2.6v0.2V12h-5.2h-0.2c-1,0.1-1.9,0.5-2.6,1.1c-0.7,0.7-1.1,1.6-1.1,2.6v0.2v5.2
	H6.8c-1,0-2-0.4-2.7-1.1s-1.2-1.6-1.2-2.6v-0.2V6.8c0-1,0.4-2,1.1-2.7s1.6-1.2,2.6-1.2h0.2h10.4V2.8z M21,13.3
	c-0.1,0.3-0.3,0.6-0.5,0.9l-0.2,0.2l-6.1,6.1c-0.3,0.3-0.7,0.5-1,0.6V16v-0.2c0-0.6,0.3-1.2,0.8-1.7c0.4-0.4,1-0.7,1.7-0.8h0.2H21z"
	/>
</svg>
